<svg xmlns="http://www.w3.org/2000/svg" width="2000" height="480" viewBox="0 0 2000 480">
  <rect width="2000" height="480" fill="#f7f3ec"></rect>
  <g transform="translate(80, 80) scale(0.3125)">
    <defs>
    <linearGradient id="g" x1="0" y1="0" x2="1" y2="1">
      <stop offset="0%" stop-color="#f5d976"></stop>
      <stop offset="35%" stop-color="#d4a017"></stop>
      <stop offset="70%" stop-color="#b8860b"></stop>
      <stop offset="100%" stop-color="#7a5908"></stop>
    </linearGradient>
    <radialGradient id="s" cx="0.5" cy="0.5" r="0.72">
      <stop offset="60%" stop-color="rgba(0,0,0,0)"></stop>
      <stop offset="100%" stop-color="rgba(0,0,0,0.18)"></stop>
    </radialGradient>
    <clipPath id="c"><path d="M512,0 C167.6,0 0,167.6 0,512 C0,856.4 167.6,1024 512,1024 C856.4,1024 1024,856.4 1024,512 C1024,167.6 856.4,0 512,0 Z"></path></clipPath>
  </defs>
  <path d="M512,0 C167.6,0 0,167.6 0,512 C0,856.4 167.6,1024 512,1024 C856.4,1024 1024,856.4 1024,512 C1024,167.6 856.4,0 512,0 Z" fill="url(#g)"></path>
  <g clip-path="url(#c)">
    <path d="M64,64 H960 V960 H64 Z" fill="none" stroke="#1a1410" stroke-opacity="0.32" stroke-width="6"></path>
    <path d="M88,88 H936 V936 H88 Z" fill="none" stroke="#1a1410" stroke-opacity="0.18" stroke-width="2"></path>
    <g transform="translate(512,512)">
      <text x="0" y="40" text-anchor="middle" font-family="JetBrains Mono, monospace" font-size="640" font-weight="700" fill="#1a1410" letter-spacing="-30">S</text>
      <text x="0" y="440" text-anchor="middle" font-family="JetBrains Mono, monospace" font-size="640" font-weight="700" fill="#1a1410" letter-spacing="-30">F</text>
      <rect x="-300" y="96" width="600" height="14" fill="#1a1410"></rect>
    </g>
    <path d="M512,0 C167.6,0 0,167.6 0,512 C0,856.4 167.6,1024 512,1024 C856.4,1024 1024,856.4 1024,512 C1024,167.6 856.4,0 512,0 Z" fill="url(#s)"></path>
  </g>
  </g>
  <g transform="translate(520, 0)">
    <text x="0" y="280" font-family="IBM Plex Serif, Georgia, serif" font-size="160" font-weight="700" font-style="italic" fill="#1a1410">SermonForge</text>
    <text x="6" y="350" font-family="JetBrains Mono, monospace" font-size="32" font-weight="500" fill="#6b5c4e" letter-spacing="8">CLARITY  THROUGH  CONSTRAINT</text>
  </g>
</svg>